<?xml version="1.0" standalone="no"?>
<!DOCTYPE svg PUBLIC "-//W3C//DTD SVG 20010904//EN"
 "http://www.w3.org/TR/2001/REC-SVG-20010904/DTD/svg10.dtd">
<svg version="1.0" xmlns="http://www.w3.org/2000/svg"
 width="331.000000pt" height="331.000000pt" viewBox="0 0 331.000000 331.000000"
 preserveAspectRatio="xMidYMid meet">

<g transform="translate(0.000000,331.000000) scale(0.100000,-0.100000)"
fill="#000000" stroke="none">
<path d="M1548 2993 c-104 -104 -316 -314 -471 -467 l-282 -280 -17 55 c-17
52 -17 48 -3 -33 6 -33 3 -40 -34 -77 -23 -23 -39 -47 -35 -53 4 -6 3 -8 -3
-5 -6 4 -46 -28 -89 -71 -157 -156 -440 -447 -449 -462 -4 -8 61 53 146 136
325 319 474 462 477 459 1 -1 27 -96 57 -211 55 -208 76 -287 201 -754 36
-135 79 -294 95 -355 16 -60 52 -191 79 -290 28 -99 55 -197 61 -219 6 -21 13
-36 15 -33 3 3 -4 42 -16 87 -13 44 -20 83 -17 86 2 3 64 -13 137 -35 72 -23
138 -41 146 -41 20 0 18 -10 -8 -31 -11 -11 -16 -19 -10 -19 15 0 1782 1761
1782 1777 0 7 -2 13 -4 13 -2 0 -102 -99 -224 -220 -121 -121 -224 -220 -229
-220 -6 0 -20 48 -32 108 -12 59 -28 125 -34 146 l-12 40 -128 32 c-71 18
-130 34 -132 36 -4 3 65 75 439 458 99 102 164 169 142 150 -45 -41 -330 -320
-497 -486 l-117 -116 -716 179 c-394 98 -715 182 -713 186 1 4 86 92 187 195
420 426 514 522 506 522 -5 0 -94 -84 -198 -187z m-207 -632 c107 -22 1056
-255 1113 -274 4 -1 -37 -49 -92 -104 -99 -101 -101 -102 -134 -93 -18 6 -168
42 -333 81 -519 122 -884 215 -854 218 3 1 84 -17 179 -39 95 -22 178 -40 184
-39 10 0 -237 73 -318 93 -15 4 -27 9 -24 11 2 2 91 -16 197 -41 107 -24 196
-43 198 -40 2 2 -27 11 -64 20 -97 24 -300 85 -286 85 6 1 80 -15 164 -34 84
-20 156 -34 161 -33 4 2 -64 23 -152 47 -88 24 -159 46 -157 48 2 2 73 -13
157 -32 85 -20 158 -34 163 -32 6 2 -53 20 -129 41 -184 50 -176 47 -172 51 2
2 82 -14 177 -36 95 -22 175 -38 177 -36 2 2 -68 24 -156 48 -89 24 -157 45
-151 47 5 2 78 -13 162 -33 83 -20 156 -34 161 -33 5 2 -66 23 -157 48 -90 25
-161 46 -156 48 6 2 85 -13 177 -33 92 -20 171 -34 176 -33 6 2 -68 23 -164
47 -264 67 -283 80 -47 32z m-358 -190 c89 -22 369 -90 622 -151 253 -62 462
-114 464 -116 7 -7 -11 -4 -123 17 -59 11 -110 18 -113 16 -2 -3 9 -8 24 -11
85 -20 193 -50 190 -53 -2 -2 -59 8 -127 22 -163 33 -170 30 -25 -10 140 -39
139 -43 -4 -14 -57 11 -105 19 -107 16 -3 -2 45 -17 106 -32 61 -15 109 -29
107 -31 -2 -2 -61 8 -131 22 -70 14 -129 24 -131 22 -2 -2 45 -17 106 -32 60
-16 108 -30 106 -32 -2 -2 -40 3 -86 12 -46 9 -85 14 -87 11 -3 -2 36 -15 86
-27 49 -13 88 -25 86 -28 -2 -2 -52 6 -111 18 -58 12 -108 20 -110 18 -3 -2
45 -17 105 -33 61 -15 109 -29 107 -31 -2 -2 -59 7 -127 21 -67 14 -128 25
-134 24 -6 0 52 -18 129 -39 77 -21 133 -39 125 -39 -50 -2 -383 64 -665 133
-55 14 -103 22 -107 18 -4 -4 16 -83 43 -177 27 -93 81 -284 119 -424 l70
-254 -24 -24 -24 -24 -7 31 c-4 17 -9 29 -12 26 -3 -3 -1 -19 5 -35 13 -37 -3
-53 -18 -19 -10 21 -10 21 -5 -5 9 -44 -7 -56 -21 -16 l-13 34 6 -44 c9 -63
-10 -45 -31 30 -10 33 -19 59 -22 57 -2 -3 5 -36 16 -74 10 -38 15 -73 11 -77
-4 -4 -18 26 -30 68 -13 42 -25 75 -27 73 -1 -2 6 -39 17 -82 11 -43 18 -81
15 -84 -7 -6 -8 -3 -52 129 -37 114 -37 104 2 -44 14 -54 24 -103 22 -109 -6
-18 -45 115 -148 497 -50 187 -125 462 -166 611 -40 149 -74 274 -74 277 0 10
-4 11 173 -32z m1695 -138 c39 -9 72 -19 72 -23 0 -12 -892 -901 -898 -896 -3
3 22 34 55 68 118 123 149 165 57 78 -115 -111 -154 -140 -84 -65 30 33 73 80
95 105 l40 45 -55 -50 c-30 -27 -58 -55 -62 -61 -4 -6 -20 -19 -35 -29 -31
-19 -34 -24 87 110 49 54 23 36 -70 -50 -63 -58 -12 9 78 101 7 8 10 14 5 14
-4 0 -43 -35 -87 -77 -43 -43 -70 -64 -58 -47 12 17 28 37 37 44 8 7 43 45 77
84 l62 71 -90 -86 c-110 -106 -147 -132 -74 -53 30 32 71 77 90 99 33 38 22
29 -90 -75 -3 -3 -18 -16 -35 -30 l-29 -25 29 37 c17 20 59 70 94 110 l65 73
-93 -90 c-51 -49 -88 -79 -81 -66 7 13 170 183 361 376 l349 352 58 -14 c31
-7 90 -21 130 -30z m-103 -247 c-15 -19 -30 -36 -33 -38 -14 -6 -226 -228
-218 -228 4 0 59 51 123 113 121 118 175 161 109 86 -21 -24 -48 -53 -60 -64
-12 -12 -50 -52 -86 -90 -47 -50 -32 -38 56 43 67 61 127 119 134 127 7 8 17
15 24 15 6 0 0 -11 -14 -24 -38 -36 -171 -177 -205 -216 -22 -26 95 81 175
160 3 3 19 16 35 30 25 21 -56 -74 -89 -105 -6 -5 -38 -39 -71 -75 -80 -86
-42 -58 72 54 51 49 95 88 97 85 3 -3 -25 -36 -62 -74 -37 -39 -97 -101 -132
-140 l-64 -70 64 60 c35 33 71 67 79 76 9 9 45 42 81 75 73 66 48 36 -87 -105
-50 -53 -89 -98 -87 -100 3 -3 55 44 117 105 164 161 199 182 56 33 -128 -133
-180 -191 -176 -195 3 -3 13 5 24 18 40 47 223 222 223 213 0 -6 -45 -57 -100
-115 -166 -174 -982 -991 -987 -987 -6 7 -153 531 -153 548 0 8 45 58 101 110
55 52 102 95 103 97 3 2 63 -195 71 -230 2 -10 8 -25 13 -34 8 -14 11 -14 23
-2 8 8 205 209 438 446 233 238 426 432 428 432 2 0 -8 -15 -22 -34z m-557
-138 c-7 -18 -373 -388 -381 -385 -11 3 -10 1 -101 297 -35 113 -62 208 -60
211 5 8 545 -114 542 -123z m642 38 c0 -2 -7 -7 -16 -10 -8 -3 -12 -2 -9 4 6
10 25 14 25 6z m-1294 -131 c21 -63 39 -113 41 -111 2 2 -7 48 -21 102 -14 54
-23 100 -21 102 2 2 20 -48 41 -112 21 -63 40 -114 42 -112 1 2 -8 48 -22 102
-36 136 -31 138 14 9 44 -126 51 -121 15 10 -36 132 -29 127 20 -15 50 -143
56 -146 20 -11 -38 142 -25 130 25 -23 24 -75 48 -132 53 -129 6 4 8 -3 5 -15
-4 -12 -3 -20 1 -18 4 3 15 -18 24 -46 l16 -51 -82 -86 c-86 -90 -119 -120
-127 -121 -5 0 -117 394 -126 445 -3 11 2 4 10 -15 21 -52 19 -30 -9 82 -36
139 -26 145 15 9 18 -61 35 -109 37 -107 3 2 -7 50 -21 107 -14 56 -24 104
-22 106 2 3 19 -41 37 -96 18 -56 34 -99 36 -97 3 3 -26 129 -43 189 -3 9 -3
17 0 17 3 0 22 -52 42 -115z m72 -732 c22 -87 39 -160 37 -161 -2 -2 -8 11
-13 30 -6 18 -26 85 -46 148 -38 120 -41 140 -28 140 5 0 27 -71 50 -157z
m-32 -5 c14 -55 23 -102 21 -104 -7 -7 -76 229 -70 239 8 13 18 -14 49 -135z
m-32 -6 c15 -57 26 -106 23 -108 -4 -5 -67 198 -67 217 0 34 20 -15 44 -109z
m-35 6 c34 -134 33 -139 -4 -33 -38 107 -40 115 -26 115 5 0 18 -37 30 -82z
m-29 -16 c11 -40 20 -77 19 -84 -1 -20 -49 123 -49 146 0 32 9 13 30 -62z
m-32 -8 c7 -23 12 -48 11 -55 0 -16 -22 40 -33 86 -11 45 8 18 22 -31z m-24
-39 c4 -20 3 -25 -3 -15 -5 8 -11 31 -15 50 -7 41 7 13 18 -35z m-34 1 c0 -26
-6 -18 -14 19 -5 22 -4 26 4 15 5 -8 10 -24 10 -34z m217 -78 c-3 -8 -6 -5 -6
6 -1 11 2 17 5 13 3 -3 4 -12 1 -19z"/>
<path d="M1578 2273 c7 -3 16 -2 19 1 4 3 -2 6 -13 5 -11 0 -14 -3 -6 -6z"/>
<path d="M1518 2213 c7 -3 16 -2 19 1 4 3 -2 6 -13 5 -11 0 -14 -3 -6 -6z"/>
<path d="M1468 2193 c7 -3 16 -2 19 1 4 3 -2 6 -13 5 -11 0 -14 -3 -6 -6z"/>
<path d="M1478 2123 c7 -3 16 -2 19 1 4 3 -2 6 -13 5 -11 0 -14 -3 -6 -6z"/>
<path d="M1428 2103 c7 -3 16 -2 19 1 4 3 -2 6 -13 5 -11 0 -14 -3 -6 -6z"/>
<path d="M1798 1943 c7 -3 16 -2 19 1 4 3 -2 6 -13 5 -11 0 -14 -3 -6 -6z"/>
<path d="M1748 1923 c7 -3 16 -2 19 1 4 3 -2 6 -13 5 -11 0 -14 -3 -6 -6z"/>
<path d="M1698 1873 c7 -3 16 -2 19 1 4 3 -2 6 -13 5 -11 0 -14 -3 -6 -6z"/>
<path d="M1728 1833 c6 -2 18 -2 25 0 6 3 1 5 -13 5 -14 0 -19 -2 -12 -5z"/>
<path d="M1688 1813 c7 -3 16 -2 19 1 4 3 -2 6 -13 5 -11 0 -14 -3 -6 -6z"/>
<path d="M2369 1433 c-13 -16 -12 -17 4 -4 9 7 17 15 17 17 0 8 -8 3 -21 -13z"/>
<path d="M1481 1410 c0 -8 4 -22 9 -30 12 -18 12 -2 0 25 -6 13 -9 15 -9 5z"/>
<path d="M3159 2763 c-13 -16 -12 -17 4 -4 16 13 21 21 13 21 -2 0 -10 -8 -17
-17z"/>
<path d="M741 2410 c0 -8 4 -24 9 -35 5 -13 9 -14 9 -5 0 8 -4 24 -9 35 -5 13
-9 14 -9 5z"/>
<path d="M1301 304 c0 -11 3 -14 6 -6 3 7 2 16 -1 19 -3 4 -6 -2 -5 -13z"/>
</g>
</svg>
